{"title":"The Secret of Moonacre (2008) XviD - Ita Eng Ac3 5.1 - Sub Ita E","uid":8455672,"size":1785081933,"categoryP":"video","categoryS":"movies","magnet":"?xt=urn:btih:9dec0cc1d41eecfca253e7ccd170595a64ad90a0&amp;dn=The+Secret+of+Moonacre+%282008%29+XviD+-+Ita+Eng+Ac3+5.1+-+Sub+Ita+E&amp;tr=udp%3A%2F%2Ftracker.openbittorrent.com%3A80&amp;tr=udp%3A%2F%2Fopen.demonii.com%3A1337&amp;tr=udp%3A%2F%2Ftracker.coppersurfer.tk%3A6969&amp;tr=udp%3A%2F%2Fexodus.desync.com%3A6969","seeders":0,"leechers":0,"uploader":null,"files":3,"time":1368059410,"description":"\nGeneral\nComplete name : Moonacre, I Segreti Dell'ultima Luna - The Secret Of Moonacre (2008)Moonacre, I Segreti Dell'ultima Luna - The Secret Of Moonacre (2008).avi\nFormat : AVI\nFormat/Info : Audio Video Interleave\nFile size : 1.66 GiB\nDuration : 1h 39mn\nOverall bit rate : 2 403 Kbps\nWriting application : VirtualDubMod 1.5.10.2 (build 2540/release)\nWriting library : VirtualDubMod build 2540/release\n\nVideo\nID : 0\nFormat : MPEG-4 Visual\nFormat profile : Simple@L3\nFormat settings, BVOP : Yes\nFormat settings, QPel : No\nFormat settings, GMC : No warppoints\nFormat settings, Matrix : Default (H.263)\nCodec ID : XVID\nCodec ID/Hint : XviD\nDuration : 1h 39mn\nBit rate : 1 500 Kbps\nWidth : 720 pixels\nHeight : 304 pixels\nDisplay aspect ratio : 2.35:1\nFrame rate : 25.000 fps\nColor space : YUV\nChroma subsampling : 4:2:0\nBit depth : 8 bits\nScan type : Progressive\nBits/(Pixel*Frame) : 0.274\nStream size : 1.04 GiB (62%)\n\nAudio #1\nID : 1\nFormat : AC-3\nFormat/Info : Audio Coding 3\nCodec ID : 2000\nDuration : 1h 39mn\nBit rate mode : Constant\nBit rate : 448 Kbps\nChannel(s) : 6 channels\nSampling rate : 48.0 KHz\nStream size : 312 MiB (18%)\nAlignment : Aligned on interleaves\nInterleave, duration : 41 ms (1.02 video frame)\nInterleave, preload duration : 500 ms\n\nAudio #2\nID : 2\nFormat : AC-3\nFormat/Info : Audio Coding 3\nMode extension : CM (complete main)\nCodec ID : 2000\nDuration : 1h 39mn\nBit rate mode : Constant\nBit rate : 448 Kbps\nChannel(s) : 6 channels\nChannel positions : Front: L C R, Side: L R, LFE\nSampling rate : 48.0 KHz\nBit depth : 16 bits\nStream size : 317 MiB (19%)\nAlignment : Split accross interleaves\nInterleave, duration : 40 ms (1.00 video frame)\nInterleave, preload duration : 500 ms","torrent":{"xt":"urn:btih:9dec0cc1d41eecfca253e7ccd170595a64ad90a0","amp;dn":"The+Secret+of+Moonacre+%282008%29+XviD+-+Ita+Eng+Ac3+5.1+-+Sub+Ita+E","amp;tr":["udp%3A%2F%2Ftracker.openbittorrent.com%3A80","udp%3A%2F%2Fopen.demonii.com%3A1337","udp%3A%2F%2Ftracker.coppersurfer.tk%3A6969","udp%3A%2F%2Fexodus.desync.com%3A6969"],"infoHash":"9dec0cc1d41eecfca253e7ccd170595a64ad90a0","infoHashBuffer":{"type":"Buffer","data":[157,236,12,193,212,30,236,252,162,83,231,204,209,112,89,90,100,173,144,160]},"announce":[],"urlList":[]}}